<svg width="20" height="20" viewBox="0 0 20 20" fill="none" xmlns="http://www.w3.org/2000/svg">
<g clip-path="url(#clip0_3335_18294)">
<path d="M5.83594 8.05648C5.83594 7.46704 6.07009 6.90174 6.48689 6.48494C6.90369 6.06814 7.46899 5.83398 8.05844 5.83398H15.2801C15.572 5.83398 15.861 5.89147 16.1306 6.00316C16.4003 6.11485 16.6453 6.27856 16.8516 6.48494C17.058 6.69132 17.2217 6.93632 17.3334 7.20597C17.4451 7.47562 17.5026 7.76462 17.5026 8.05648V15.2782C17.5026 15.57 17.4451 15.859 17.3334 16.1287C17.2217 16.3983 17.058 16.6433 16.8516 16.8497C16.6453 17.0561 16.4003 17.2198 16.1306 17.3315C15.861 17.4432 15.572 17.5007 15.2801 17.5007H8.05844C7.76657 17.5007 7.47757 17.4432 7.20792 17.3315C6.93828 17.2198 6.69327 17.0561 6.48689 16.8497C6.28051 16.6433 6.11681 16.3983 6.00512 16.1287C5.89342 15.859 5.83594 15.57 5.83594 15.2782V8.05648Z" stroke="#73FE01" stroke-width="2" stroke-linecap="round" stroke-linejoin="round"/>
<path d="M3.34333 13.9475C3.08779 13.8018 2.87523 13.5912 2.72715 13.3371C2.57906 13.0829 2.50071 12.7942 2.5 12.5V4.16667C2.5 3.25 3.25 2.5 4.16667 2.5H12.5C13.125 2.5 13.465 2.82083 13.75 3.33333" stroke="#73FE01" stroke-width="2" stroke-linecap="round" stroke-linejoin="round"/>
</g>
<defs>
<clipPath id="clip0_3335_18294">
<rect width="20" height="20" fill="white"/>
</clipPath>
</defs>
</svg>
