<svg width="100" height="100" viewBox="0 0 100 100" fill="none" xmlns="http://www.w3.org/2000/svg">
<g clip-path="url(#clip0_4388_14061)">
<path d="M78.2226 0H21.7774C9.75005 0 0 9.75005 0 21.7774V78.2226C0 90.2499 9.75005 100 21.7774 100H78.2226C90.2499 100 100 90.2499 100 78.2226V21.7774C100 9.75005 90.2499 0 78.2226 0Z" fill="#00F0FF"/>
<path d="M46.1481 39.4178H64.8196L83.9206 58.3968C85.1631 59.6313 85.1696 61.6395 83.9334 62.8803L59.4374 87.5H40.2031L46.0181 81.8468L67.3681 60.6315L46.2891 39.416" fill="#1B1B1B"/>
<path d="M53.8256 60.584H35.1541L16.0531 41.6047C14.8105 40.3702 14.8042 38.3623 16.0404 37.1213L40.5364 12.5H59.7706L53.9556 18.1533L32.6056 39.3685L53.6846 60.584" fill="#1B1B1B"/>
</g>
<defs>
<clipPath id="clip0_4388_14061">
<rect width="100" height="100" fill="white"/>
</clipPath>
</defs>
</svg>
