<svg width="100" height="84" viewBox="0 0 100 84" fill="none" xmlns="http://www.w3.org/2000/svg">
<path d="M0 70.6132C0 81.494 5.79926 84 11.8316 84C24.5928 84 34.1861 72.8056 39.9068 63.9604C39.2103 65.9148 38.8227 67.872 38.8227 69.7536C38.8227 74.9196 41.7631 78.5988 47.5623 78.5988C55.5297 78.5988 64.0362 71.5512 68.4453 63.9576C68.1364 65.0552 67.9819 66.0716 67.9819 67.0096C67.9819 70.6132 69.9927 72.884 74.0901 72.884C87.0085 72.884 100 49.7896 100 29.5904C100 13.8544 92.1085 0 72.3096 0C37.5112 0 0 42.9016 0 70.6132ZM60.3235 27.8684C60.3235 23.954 62.4888 21.2156 65.6594 21.2156C68.7542 21.2156 70.9194 23.954 70.9194 27.8684C70.9194 31.7828 68.757 34.6024 65.6622 34.6024C62.4888 34.6024 60.3263 31.7828 60.3263 27.8684H60.3235ZM76.876 27.8684C76.876 23.954 79.0384 21.2156 82.2119 21.2156C85.3039 21.2156 87.4691 23.954 87.4691 27.8684C87.4691 31.7828 85.3067 34.6024 82.2119 34.6024C79.0384 34.6024 76.876 31.7828 76.876 27.8684Z" fill="#AB9FF2"/>
</svg>
