<svg width="100" height="108" viewBox="0 0 100 108" fill="none" xmlns="http://www.w3.org/2000/svg">
<g clip-path="url(#clip0_4388_16057)">
<path fill-rule="evenodd" clip-rule="evenodd" d="M31.613 54.0108L64.0512 86.0032L84.526 65.8128C88.1872 62.562 93.7884 62.7064 97.2724 66.1416C100.756 69.5772 100.902 75.1004 97.606 78.7108L70.586 105.36C66.9564 108.88 61.1356 108.88 57.506 105.36L18.5231 66.9092V89.7636C18.5231 94.8072 14.3766 98.8964 9.26156 98.8964C4.14652 98.8964 0 94.8072 0 89.7636V18.2287C0 13.1848 4.14652 9.09584 9.26156 9.09584C14.3766 9.09584 18.5231 13.1848 18.5231 18.2287V41.0832L57.5012 2.64184C61.1296 -0.880612 66.9528 -0.880612 70.5808 2.64184L97.6212 29.2863C100.918 32.8966 100.771 38.42 97.2872 41.8552C93.8036 45.2904 88.2024 45.4352 84.5412 42.1844L64.066 21.9939L31.613 54.0108ZM64.066 44.868C60.3156 44.866 56.9332 47.0924 55.4968 50.5088C54.06 53.9248 54.852 57.8584 57.5032 60.474C60.1548 63.09 64.1428 63.8732 67.608 62.458C71.0732 61.0432 73.3328 57.7092 73.3328 54.0108C73.334 51.586 72.3584 49.26 70.6208 47.5444C68.8828 45.8292 66.5252 44.8644 64.066 44.8632V44.868Z" fill="#2DBD96"/>
</g>
<defs>
<clipPath id="clip0_4388_16057">
<rect width="100" height="108" fill="white"/>
</clipPath>
</defs>
</svg>
